# xmcd
#
# Track frame offsets: 
#        150
#        12265
#        24132
#        35515
#        46165
#        56587
#        68010
#        79172
#        88435
#        97832
#        109740
#        122102
#        131707
#        144022
#        154485
#        163832
#        174115
#        185457
#        195047
#        206567
#        216557
#
# Disc length: 3004 seconds
#
# Revision: 0
# Processed by: cddbd v1.5.1PL0 Copyright (c) Steve Scherf et al.
# Submitted via: ExactAudioCopy v0.95a5
#
DISCID=180bba15
DTITLE=Faron Young - The Complete Capitol Hits of Faron Young
DYEAR=2000
DGENRE=Country
TTITLE0=Goin' Steady
TTITLE1=I Can't Wait (For the Sun to Go Down)
TTITLE2=A Place for Girls Like You
TTITLE3=If You Ain't Lovin' (You Ain't Livin')
TTITLE4=Live Fast, Love Hard, Die Young
TTITLE5=Forgive Me, Dear
TTITLE6=All Right
TTITLE7=Go Back You Fool
TTITLE8=It's a Great Life (If You Don't Weaken)
TTITLE9=For the Love of a Woman Like You
TTITLE10=You're Still Mine
TTITLE11=I've Got Five Dollars and It's Saturday Night
TTITLE12=Sweet Dreams
TTITLE13=Until I Met You
TTITLE14=Turn Her Down
TTITLE15=I'll Be Satisfied With Love
TTITLE16=I Miss You Already (And You're Not Even Gone)
TTITLE17=I'm Gonna Live Some Before I Die
TTITLE18=The Shrine of St. Cecilia
TTITLE19=Love Has Finally Come My Way
TTITLE20=Alone With You
EXTD=
EXTT0=
EXTT1=
EXTT2=
EXTT3=
EXTT4=
EXTT5=
EXTT6=
EXTT7=
EXTT8=
EXTT9=
EXTT10=
EXTT11=
EXTT12=
EXTT13=
EXTT14=
EXTT15=
EXTT16=
EXTT17=
EXTT18=
EXTT19=
EXTT20=
PLAYORDER=
